<?xml version="1.0" standalone="no"?>
<!DOCTYPE svg PUBLIC "-//W3C//DTD SVG 20010904//EN"
 "http://www.w3.org/TR/2001/REC-SVG-20010904/DTD/svg10.dtd">
<svg version="1.0" xmlns="http://www.w3.org/2000/svg"
 width="640.000000pt" height="640.000000pt" viewBox="0 0 640.000000 640.000000"
 preserveAspectRatio="xMidYMid meet">
<metadata>
Created by potrace 1.16, written by Peter Selinger 2001-2019
</metadata>
<g transform="translate(0.000000,640.000000) scale(0.100000,-0.100000)"
fill="#000000" stroke="none">
<path d="M3454 5221 c-48 -29 -84 -82 -84 -123 0 -48 42 -88 93 -88 31 0 45 8
87 51 55 56 64 96 32 135 -37 46 -80 55 -128 25z"/>
<path d="M2167 4513 c-340 -340 -625 -630 -633 -645 -22 -42 -17 -73 17 -107
48 -48 92 -40 159 28 78 80 135 92 189 42 26 -24 31 -37 31 -73 0 -23 -4 -49
-9 -56 -4 -8 -115 -121 -245 -251 -248 -250 -252 -255 -225 -315 16 -34 69
-61 104 -52 18 5 78 56 157 134 70 69 139 132 154 140 35 18 81 9 116 -25 22
-21 28 -36 28 -71 0 -42 -4 -48 -100 -147 -92 -95 -100 -106 -100 -142 0 -63
53 -104 116 -89 14 4 42 24 63 45 66 68 130 77 184 27 22 -20 27 -34 27 -72
l0 -47 -189 -192 c-111 -112 -192 -202 -196 -217 -9 -36 2 -66 34 -94 57 -51
79 -37 291 177 131 133 171 155 229 125 84 -44 82 -115 -6 -206 -56 -58 -71
-97 -54 -142 10 -27 60 -58 94 -58 13 0 73 51 156 133 141 139 178 164 230
152 60 -13 97 -96 68 -151 -9 -16 -104 -117 -212 -224 -109 -107 -203 -209
-210 -225 -27 -63 14 -125 82 -125 39 0 37 -2 346 303 234 231 242 237 277
237 40 0 87 -35 100 -74 19 -59 0 -89 -160 -251 -145 -148 -150 -154 -150
-194 0 -54 36 -91 89 -91 33 0 52 17 288 252 244 244 254 253 292 253 66 0
114 -60 102 -128 -5 -28 -23 -54 -78 -111 -57 -57 -73 -80 -73 -102 0 -49 10
-68 43 -91 65 -45 50 -58 703 597 328 329 601 605 605 612 5 7 9 29 9 49 0 53
-37 89 -90 89 -37 0 -48 -7 -115 -70 -79 -74 -97 -81 -161 -58 -38 13 -64 54
-64 99 0 29 16 50 135 169 120 121 135 140 135 170 0 47 -42 90 -87 90 -43 0
-64 -13 -127 -79 -104 -109 -145 -120 -213 -58 -25 22 -39 74 -29 105 4 10
143 156 311 324 192 193 306 314 310 331 16 63 -24 117 -87 117 -37 0 -47 -7
-122 -79 -101 -98 -134 -116 -181 -101 -49 16 -75 53 -75 107 0 43 3 47 129
177 113 116 130 138 129 166 -1 41 -46 90 -83 90 -39 0 -62 -15 -146 -96 -74
-72 -78 -74 -126 -74 -66 0 -103 33 -103 92 0 52 18 83 83 145 88 82 99 123
48 174 -58 58 -96 41 -246 -111 -60 -62 -125 -119 -143 -126 -71 -31 -144 15
-144 92 0 46 18 72 124 178 76 77 88 93 88 123 0 35 -15 73 -34 85 -6 4 -31 8
-56 8 l-44 0 -236 -234 c-129 -128 -246 -241 -260 -250 -82 -55 -189 40 -150
134 7 17 16 30 20 30 4 0 15 16 25 36 28 60 1 118 -61 130 -46 8 -77 -13 -209
-146 -121 -121 -147 -134 -208 -105 -38 18 -57 50 -57 96 0 40 8 54 73 120 58
60 69 85 54 134 -13 42 -34 55 -86 55 l-46 0 -618 -617z m1038 -327 c26 -21
27 -26 36 -161 5 -77 13 -204 18 -283 11 -168 7 -206 -25 -227 -47 -30 -66 -7
-317 385 -44 69 -84 127 -89 128 -11 5 -10 39 2 63 14 26 91 63 175 83 39 10
84 21 100 25 49 13 71 10 100 -13z m501 -467 c30 -29 54 -58 54 -65 0 -8 4
-14 8 -14 16 0 62 -97 62 -129 0 -21 -7 -35 -22 -45 -20 -12 -338 -86 -372
-86 -18 0 -52 31 -59 55 -9 26 12 63 100 178 77 101 134 157 159 157 8 0 40
-23 70 -51z m-816 -241 c41 -16 89 -35 105 -42 17 -7 53 -24 82 -36 78 -35 94
-97 32 -130 -20 -11 -252 -84 -318 -100 -69 -17 -91 19 -91 148 0 113 7 145
36 177 27 29 37 28 154 -17z m705 -250 c55 -17 109 -34 120 -38 11 -5 32 -11
47 -14 33 -7 68 -43 68 -68 0 -36 -44 -104 -111 -170 -74 -74 -109 -86 -144
-48 -28 31 -195 293 -195 307 0 29 21 62 42 66 31 6 56 1 173 -35z m-338 -47
c18 -24 17 -379 -1 -403 -41 -55 -325 35 -338 107 -6 30 1 41 125 180 127 142
133 147 171 139 17 -4 36 -14 43 -23z"/>
<path d="M2134 4917 c-73 -72 -74 -73 -74 -124 0 -46 4 -56 33 -82 25 -25 41
-31 75 -31 40 0 48 5 111 68 78 76 92 99 87 139 -7 65 -51 103 -116 103 -38 0
-48 -6 -116 -73z"/>
<path d="M4885 3792 c-32 -6 -124 -102 -131 -137 -8 -45 11 -83 51 -102 34
-16 37 -16 74 3 57 28 121 107 121 149 0 56 -57 99 -115 87z"/>
<path d="M1627 2830 c-47 -41 -63 -81 -47 -119 16 -39 39 -59 76 -67 24 -5 37
1 75 35 61 53 76 89 55 130 -32 60 -104 70 -159 21z"/>
<path d="M2143 2208 c-52 -45 -56 -50 -76 -78 -50 -72 24 -162 109 -130 35 13
90 65 110 102 21 40 17 73 -12 107 -36 43 -80 42 -131 -1z"/>
<path d="M4302 2209 c-31 -6 -51 -22 -141 -110 -46 -45 -61 -76 -61 -125 0
-39 5 -51 31 -75 26 -24 40 -29 80 -29 48 0 52 2 130 78 112 108 130 169 67
231 -34 33 -59 40 -106 30z"/>
<path d="M2028 1559 c-92 -13 -166 -56 -193 -114 -30 -63 -36 -98 -23 -155 21
-100 66 -139 223 -195 153 -54 196 -118 116 -172 -40 -27 -131 -32 -185 -9
-30 12 -34 19 -40 65 l-7 52 -52 -3 -52 -3 0 -110 0 -110 50 -13 c192 -48 360
-25 446 60 47 47 62 92 56 170 -10 119 -61 166 -256 237 -101 37 -121 53 -121
98 0 58 77 87 180 67 34 -7 35 -9 45 -67 l6 -38 57 3 57 3 3 97 3 96 -58 17
c-53 16 -78 20 -168 29 -16 1 -56 -1 -87 -5z"/>
<path d="M3127 1542 c-3 -4 -6 -55 -6 -115 l-1 -107 58 0 59 0 9 48 9 47 48 3
47 3 0 -264 0 -263 -37 -10 c-37 -9 -38 -11 -41 -56 l-3 -48 176 0 176 0 -3
48 c-3 45 -4 47 -40 56 l-38 10 0 263 0 263 49 0 c48 0 50 -1 56 -32 14 -69
12 -68 71 -68 l54 0 0 115 0 115 -319 0 c-176 0 -322 -3 -324 -8z"/>
<path d="M4004 1533 c-7 -22 -32 -87 -49 -128 -7 -16 -36 -93 -64 -170 -114
-314 -125 -339 -154 -353 -25 -12 -28 -18 -25 -55 l3 -42 143 -3 142 -3 0 46
c0 42 -3 47 -30 56 -34 12 -35 17 -16 64 l15 35 113 0 114 0 16 -44 17 -45
-35 -11 c-32 -11 -34 -14 -34 -56 l0 -44 163 2 c162 3 162 3 165 27 6 39 -6
68 -31 75 -19 4 -33 37 -100 228 -43 123 -95 270 -115 328 l-37 105 -98 3
c-86 2 -98 1 -103 -15z m127 -288 c16 -61 29 -116 29 -122 0 -9 -22 -13 -79
-13 l-78 0 41 125 c22 69 45 124 50 122 5 -2 22 -52 37 -112z"/>
<path d="M2797 1369 c-46 -11 -109 -42 -126 -63 -21 -25 -28 -19 -35 24 l-6
40 -59 0 c-32 0 -79 -3 -105 -6 l-46 -7 0 -43 c0 -40 3 -45 35 -58 l35 -15 0
-175 0 -175 -32 -9 c-31 -8 -33 -11 -36 -55 l-3 -47 156 0 156 0 -3 47 c-3 41
-6 48 -28 53 l-25 6 -3 157 -3 156 26 17 c14 9 45 19 69 21 40 5 46 3 62 -23
17 -24 19 -54 22 -231 l3 -204 122 3 122 3 3 33 c4 38 -10 59 -41 64 -22 3
-22 7 -27 194 -5 183 -6 192 -30 228 -44 64 -113 86 -203 65z"/>
</g>
</svg>
